<?xml version="1.0" encoding="UTF-8"?>
<svg id="Lager_1" xmlns="http://www.w3.org/2000/svg" version="1.1" viewBox="0 0 389.08 114.38">
  <!-- Generator: Adobe Illustrator 29.8.3, SVG Export Plug-In . SVG Version: 2.1.1 Build 3)  -->
  <defs>
    <style>
      .st0 {
        fill: #fff;
      }

      .st1 {
        fill: none;
      }
    </style>
  </defs>
  <path class="st0" d="M98.14,75.43c.76-3.45,1.17-7.03,1.17-10.7,0-27.42-22.23-49.65-49.65-49.65S0,37.3,0,64.73s22.23,49.65,49.65,49.65c9.36,0,18.11-2.59,25.58-7.09,15.15-4.97,56.87-16.71,126.18-21.95,88.77-6.72,187.66-9.91,187.66-9.91H98.14ZM3.35,64.73c0-25.57,20.73-46.3,46.3-46.3s46.3,20.73,46.3,46.3-20.73,46.3-46.3,46.3S3.35,90.3,3.35,64.73Z"/>
  <circle class="st1" cx="49.65" cy="64.73" r="46.39" transform="translate(-15.25 114.14) rotate(-89.79)"/>
  <path class="st0" d="M27.59,26.15c-2.55,7.64.85,17.82,8.49,21.21,5.94-13.58,21.21-22.06,36.49-21.21-7.64,2.55-16.12,9.33-14.43,17.82,15.27-1.7,28,8.48,36.49,21.21-5.94-5.09-16.12-10.18-22.91-3.39,8.49,11.88,7.64,28.85,0,41.58,2.55-7.64.85-17.82-8.49-21.21-5.94,14.43-22.06,20.36-36.49,21.21,7.64-1.7,14.43-7.64,15.27-15.27,0-.85-.85-2.55-.85-2.55-15.27.85-28.85-8.49-36.49-21.21,6.79,5.09,15.27,10.18,22.91,3.39-8.49-11.88-7.64-28.85,0-41.58h0Z"/>
  <g>
    <path class="st0" d="M129.59,31.25h-12.12v-11.88c0-3.45-.13-5.61-.39-6.46-.26-.86-.82-1.29-1.7-1.29-.99,0-1.62.52-1.89,1.56-.27,1.04-.4,3.29-.4,6.74v31.69c0,3.32.13,5.48.4,6.49.27,1.01.87,1.52,1.8,1.52s1.48-.51,1.76-1.52c.28-1.02.42-3.4.42-7.15v-8.58h12.12v2.67c0,7.09-.34,12.11-1.02,15.07-.68,2.96-2.19,5.56-4.52,7.79-2.33,2.23-5.2,3.34-8.62,3.34s-6.47-.94-8.78-2.83c-2.3-1.89-3.83-4.5-4.57-7.83s-1.12-8.36-1.12-15.06v-19.98c0-4.93.12-8.62.35-11.09.23-2.46.92-4.83,2.06-7.12,1.14-2.28,2.72-4.08,4.75-5.38C110.14.66,112.46,0,115.09,0c3.57,0,6.51,1.01,8.83,3.04,2.32,2.03,3.85,4.55,4.57,7.58.73,3.03,1.09,7.73,1.09,14.12v6.5Z"/>
    <path class="st0" d="M153.41,20.56v49.31h-8.75v-20.69h-2.62v20.69h-8.75V20.56h8.75v17.69h2.62v-17.69h8.75Z"/>
    <path class="st0" d="M156.88,20.56h6.18c4.12,0,6.91.23,8.37.7,1.46.47,2.65,1.66,3.57,3.58.92,1.92,1.38,4.98,1.38,9.18,0,3.83-.33,6.41-.98,7.73s-1.93,2.11-3.84,2.37c1.73.63,2.89,1.47,3.49,2.53.59,1.06.96,2.03,1.11,2.91.14.88.22,3.32.22,7.3v13.02h-8.12v-16.4c0-2.64-.14-4.28-.42-4.91-.28-.63-1.01-.95-2.2-.95v22.25h-8.75V20.56ZM165.63,29v10.94c.97,0,1.65-.2,2.04-.59.39-.39.58-1.68.58-3.84v-2.7c0-1.56-.19-2.58-.56-3.07-.38-.49-1.06-.73-2.06-.73Z"/>
    <path class="st0" d="M188.52,20.56v49.31h-8.75V20.56h8.75Z"/>
    <path class="st0" d="M210.52,35.5h-8.13v-3.66c0-1.71-.1-2.79-.3-3.26-.2-.47-.54-.7-1.01-.7-.51,0-.9.31-1.16.94-.26.63-.39,1.58-.39,2.85,0,1.64.16,2.87.47,3.7.3.83,1.12,1.84,2.47,3.02,3.86,3.41,6.29,6.2,7.3,8.38,1.01,2.17,1.51,5.68,1.51,10.51,0,3.52-.28,6.11-.84,7.77s-1.64,3.06-3.25,4.19c-1.61,1.13-3.47,1.69-5.6,1.69-2.34,0-4.33-.65-5.98-1.95-1.65-1.3-2.73-2.95-3.25-4.96-.51-2.01-.77-4.86-.77-8.55v-3.23h8.12v5.98c0,1.84.11,3.02.34,3.55.23.53.63.79,1.2.79s1-.33,1.28-1c.28-.67.42-1.67.42-2.99,0-2.9-.27-4.8-.81-5.7-.55-.89-1.91-2.39-4.08-4.48-2.16-2.11-3.6-3.65-4.3-4.6-.7-.96-1.29-2.28-1.75-3.96-.46-1.69-.69-3.84-.69-6.46,0-3.78.33-6.54.98-8.29.66-1.75,1.71-3.11,3.18-4.1,1.46-.99,3.23-1.48,5.3-1.48,2.26,0,4.19.54,5.79,1.62,1.59,1.08,2.65,2.44,3.17,4.08.52,1.64.78,4.42.78,8.35v1.95Z"/>
    <path class="st0" d="M224,45.44v8.5h-11v-8.5h11Z"/>
    <path class="st0" d="M264.52,1.38v68.5h-10.62l-.04-46.24-4.21,46.24h-7.37l-4.46-45.24-.04,45.24h-10.62V1.38h15.6c.41,4.14.9,9.01,1.46,14.59l1.75,17.4,2.83-31.99h15.73Z"/>
    <path class="st0" d="M283.89,20.56l5.01,49.31h-8.93l-.47-8.87h-3.19l-.49,8.87h-9.02l4.48-49.31h12.6ZM279.23,52.25c-.43-5.57-.87-12.48-1.3-20.72-.88,9.46-1.43,16.37-1.65,20.72h2.95Z"/>
    <path class="st0" d="M290.42,20.56h6.18c4.12,0,6.91.23,8.37.7,1.46.47,2.65,1.66,3.57,3.58.92,1.92,1.38,4.98,1.38,9.18,0,3.83-.33,6.41-.98,7.73-.65,1.32-1.93,2.11-3.84,2.37,1.73.63,2.89,1.47,3.49,2.53.59,1.06.96,2.03,1.11,2.91.14.88.22,3.32.22,7.3v13.02h-8.12v-16.4c0-2.64-.14-4.28-.42-4.91-.28-.63-1.01-.95-2.2-.95v22.25h-8.75V20.56ZM299.17,29v10.94c.97,0,1.65-.2,2.04-.59.39-.39.59-1.68.59-3.84v-2.7c0-1.56-.19-2.58-.56-3.07-.38-.49-1.06-.73-2.06-.73Z"/>
    <path class="st0" d="M322.06,20.56v49.31h-8.75V20.56h8.75Z"/>
    <path class="st0" d="M345.06,20.56v49.31h-7.62l-4.56-22.42v22.42h-7.31V20.56h7.31l4.87,22.2v-22.2h7.31Z"/>
    <path class="st0" d="M348.58,20.56h14.56v9.87h-5.81v9.37h5.44v9.37h-5.44v10.81h6.44v9.87h-15.19V20.56Z"/>
  </g>
  <path class="st0" d="M369.16,18.34c-3.14,0-5.38-2.35-5.38-5.47,0-3.29,2.49-5.47,5.38-5.47s5.35,2.18,5.35,5.47-2.49,5.47-5.35,5.47ZM369.16,8.36c-2.37,0-4.21,1.86-4.21,4.52,0,2.49,1.61,4.52,4.21,4.52,2.34,0,4.18-1.84,4.18-4.52s-1.84-4.52-4.18-4.52ZM368.08,16h-.99v-6.05h2.3c1.46,0,2.21.51,2.21,1.74,0,1.1-.67,1.55-1.58,1.65l1.7,2.66h-1.13l-1.56-2.59h-.94v2.59ZM369.19,12.57c.75,0,1.4-.07,1.4-.95,0-.73-.72-.82-1.32-.82h-1.2v1.77h1.11Z"/>
</svg>